<mxfile host="Electron" modified="2023-11-20T01:40:00.852Z" agent="Mozilla/5.0 (Windows NT 10.0; Win64; x64) AppleWebKit/537.36 (KHTML, like Gecko) draw.io/21.6.8 Chrome/114.0.5735.289 Electron/25.5.0 Safari/537.36" etag="X5JQXjJimz6Bysf7D-qV" version="21.6.8" type="device">
  <diagram name="Página-1" id="ZOs2dmh3QNxUm6-tBIb0">
    <mxGraphModel dx="1022" dy="640" grid="1" gridSize="10" guides="1" tooltips="1" connect="1" arrows="1" fold="1" page="1" pageScale="1" pageWidth="827" pageHeight="1169" math="0" shadow="0">
      <root>
        <mxCell id="0" />
        <mxCell id="1" parent="0" />
        <mxCell id="r59xEY66x3O-hmm3xWtb-1" value="" style="shape=ellipse;html=1;dashed=0;whiteSpace=wrap;perimeter=ellipsePerimeter;" vertex="1" parent="1">
          <mxGeometry x="154" y="140" width="520" height="420" as="geometry" />
        </mxCell>
        <mxCell id="r59xEY66x3O-hmm3xWtb-22" style="edgeStyle=orthogonalEdgeStyle;rounded=0;orthogonalLoop=1;jettySize=auto;html=1;exitX=1;exitY=0.5;exitDx=0;exitDy=0;entryX=0;entryY=0.5;entryDx=0;entryDy=0;" edge="1" parent="1" source="r59xEY66x3O-hmm3xWtb-2" target="r59xEY66x3O-hmm3xWtb-21">
          <mxGeometry relative="1" as="geometry" />
        </mxCell>
        <mxCell id="r59xEY66x3O-hmm3xWtb-23" value="Título + Data Entrega&lt;br style=&quot;font-size: 13px;&quot;&gt;&lt;span style=&quot;font-size: 13px;&quot;&gt;e Dados Opcionais&lt;/span&gt;" style="edgeLabel;html=1;align=center;verticalAlign=middle;resizable=0;points=[];" vertex="1" connectable="0" parent="r59xEY66x3O-hmm3xWtb-22">
          <mxGeometry x="0.214" y="-3" relative="1" as="geometry">
            <mxPoint x="-16" y="-3" as="offset" />
          </mxGeometry>
        </mxCell>
        <mxCell id="r59xEY66x3O-hmm3xWtb-2" value="Tasks" style="html=1;dashed=0;whiteSpace=wrap;shape=partialRectangle;right=0;" vertex="1" parent="1">
          <mxGeometry x="40" y="470" width="100" height="30" as="geometry" />
        </mxCell>
        <mxCell id="r59xEY66x3O-hmm3xWtb-7" style="edgeStyle=orthogonalEdgeStyle;rounded=0;orthogonalLoop=1;jettySize=auto;html=1;exitX=0.5;exitY=1;exitDx=0;exitDy=0;entryX=0;entryY=0.5;entryDx=0;entryDy=0;" edge="1" parent="1" source="r59xEY66x3O-hmm3xWtb-3" target="r59xEY66x3O-hmm3xWtb-6">
          <mxGeometry relative="1" as="geometry" />
        </mxCell>
        <mxCell id="r59xEY66x3O-hmm3xWtb-8" value="Título&amp;nbsp;" style="edgeLabel;html=1;align=center;verticalAlign=middle;resizable=0;points=[];" vertex="1" connectable="0" parent="r59xEY66x3O-hmm3xWtb-7">
          <mxGeometry x="-0.1416" y="-1" relative="1" as="geometry">
            <mxPoint x="-20" y="-26" as="offset" />
          </mxGeometry>
        </mxCell>
        <mxCell id="r59xEY66x3O-hmm3xWtb-11" style="edgeStyle=orthogonalEdgeStyle;rounded=0;orthogonalLoop=1;jettySize=auto;html=1;exitX=0.25;exitY=1;exitDx=0;exitDy=0;entryX=0;entryY=0.5;entryDx=0;entryDy=0;" edge="1" parent="1" source="r59xEY66x3O-hmm3xWtb-3" target="r59xEY66x3O-hmm3xWtb-6">
          <mxGeometry relative="1" as="geometry">
            <Array as="points">
              <mxPoint x="65" y="255" />
            </Array>
          </mxGeometry>
        </mxCell>
        <mxCell id="r59xEY66x3O-hmm3xWtb-14" value="Tag(s)" style="edgeLabel;html=1;align=center;verticalAlign=middle;resizable=0;points=[];" vertex="1" connectable="0" parent="r59xEY66x3O-hmm3xWtb-11">
          <mxGeometry x="-0.757" y="1" relative="1" as="geometry">
            <mxPoint as="offset" />
          </mxGeometry>
        </mxCell>
        <mxCell id="r59xEY66x3O-hmm3xWtb-33" style="edgeStyle=orthogonalEdgeStyle;rounded=0;orthogonalLoop=1;jettySize=auto;html=1;exitX=0.75;exitY=1;exitDx=0;exitDy=0;entryX=0;entryY=0.5;entryDx=0;entryDy=0;" edge="1" parent="1" source="r59xEY66x3O-hmm3xWtb-3" target="r59xEY66x3O-hmm3xWtb-6">
          <mxGeometry relative="1" as="geometry" />
        </mxCell>
        <mxCell id="r59xEY66x3O-hmm3xWtb-34" value="Data" style="edgeLabel;html=1;align=center;verticalAlign=middle;resizable=0;points=[];" vertex="1" connectable="0" parent="r59xEY66x3O-hmm3xWtb-33">
          <mxGeometry x="-0.7455" y="1" relative="1" as="geometry">
            <mxPoint as="offset" />
          </mxGeometry>
        </mxCell>
        <mxCell id="r59xEY66x3O-hmm3xWtb-3" value="Usuário" style="html=1;dashed=0;whiteSpace=wrap;" vertex="1" parent="1">
          <mxGeometry x="40" y="120" width="100" height="50" as="geometry" />
        </mxCell>
        <mxCell id="r59xEY66x3O-hmm3xWtb-4" value="&lt;font style=&quot;font-size: 15px;&quot;&gt;4. Remoção de Tasks&lt;/font&gt;" style="text;html=1;strokeColor=none;fillColor=none;align=center;verticalAlign=middle;whiteSpace=wrap;rounded=0;" vertex="1" parent="1">
          <mxGeometry x="332" y="160" width="164" height="30" as="geometry" />
        </mxCell>
        <mxCell id="r59xEY66x3O-hmm3xWtb-16" value="" style="edgeStyle=orthogonalEdgeStyle;rounded=0;orthogonalLoop=1;jettySize=auto;html=1;entryX=0.5;entryY=0;entryDx=0;entryDy=0;" edge="1" parent="1" source="r59xEY66x3O-hmm3xWtb-6" target="r59xEY66x3O-hmm3xWtb-17">
          <mxGeometry relative="1" as="geometry">
            <mxPoint x="300" y="360" as="targetPoint" />
          </mxGeometry>
        </mxCell>
        <mxCell id="r59xEY66x3O-hmm3xWtb-19" value="Palavras-chave" style="edgeLabel;html=1;align=center;verticalAlign=middle;resizable=0;points=[];" vertex="1" connectable="0" parent="r59xEY66x3O-hmm3xWtb-16">
          <mxGeometry x="-0.0489" y="2" relative="1" as="geometry">
            <mxPoint as="offset" />
          </mxGeometry>
        </mxCell>
        <mxCell id="r59xEY66x3O-hmm3xWtb-6" value="Buscar Task" style="shape=ellipse;html=1;dashed=0;whiteSpace=wrap;perimeter=ellipsePerimeter;" vertex="1" parent="1">
          <mxGeometry x="250" y="230" width="100" height="50" as="geometry" />
        </mxCell>
        <mxCell id="r59xEY66x3O-hmm3xWtb-18" style="edgeStyle=orthogonalEdgeStyle;rounded=0;orthogonalLoop=1;jettySize=auto;html=1;exitX=0;exitY=0.5;exitDx=0;exitDy=0;entryX=0.5;entryY=0;entryDx=0;entryDy=0;" edge="1" parent="1" source="r59xEY66x3O-hmm3xWtb-17" target="r59xEY66x3O-hmm3xWtb-2">
          <mxGeometry relative="1" as="geometry" />
        </mxCell>
        <mxCell id="r59xEY66x3O-hmm3xWtb-20" value="Palavras-chave" style="edgeLabel;html=1;align=center;verticalAlign=middle;resizable=0;points=[];" vertex="1" connectable="0" parent="r59xEY66x3O-hmm3xWtb-18">
          <mxGeometry x="-0.3311" y="3" relative="1" as="geometry">
            <mxPoint as="offset" />
          </mxGeometry>
        </mxCell>
        <mxCell id="r59xEY66x3O-hmm3xWtb-17" value="Consultar no Depósito" style="shape=ellipse;html=1;dashed=0;whiteSpace=wrap;perimeter=ellipsePerimeter;" vertex="1" parent="1">
          <mxGeometry x="250" y="370" width="100" height="50" as="geometry" />
        </mxCell>
        <mxCell id="r59xEY66x3O-hmm3xWtb-25" value="" style="edgeStyle=orthogonalEdgeStyle;rounded=0;orthogonalLoop=1;jettySize=auto;html=1;" edge="1" parent="1" source="r59xEY66x3O-hmm3xWtb-21" target="r59xEY66x3O-hmm3xWtb-24">
          <mxGeometry relative="1" as="geometry" />
        </mxCell>
        <mxCell id="r59xEY66x3O-hmm3xWtb-26" value="Título + Data Entrega&lt;br style=&quot;font-size: 13px;&quot;&gt;&lt;span style=&quot;font-size: 13px;&quot;&gt;e Dados Opcionais&lt;/span&gt;" style="edgeLabel;html=1;align=center;verticalAlign=middle;resizable=0;points=[];" vertex="1" connectable="0" parent="r59xEY66x3O-hmm3xWtb-25">
          <mxGeometry x="0.0489" y="-4" relative="1" as="geometry">
            <mxPoint x="-4" y="-4" as="offset" />
          </mxGeometry>
        </mxCell>
        <mxCell id="r59xEY66x3O-hmm3xWtb-21" value="Exibir Task" style="shape=ellipse;html=1;dashed=0;whiteSpace=wrap;perimeter=ellipsePerimeter;" vertex="1" parent="1">
          <mxGeometry x="380" y="460" width="100" height="50" as="geometry" />
        </mxCell>
        <mxCell id="r59xEY66x3O-hmm3xWtb-29" value="" style="edgeStyle=orthogonalEdgeStyle;rounded=0;orthogonalLoop=1;jettySize=auto;html=1;" edge="1" parent="1" source="r59xEY66x3O-hmm3xWtb-24" target="r59xEY66x3O-hmm3xWtb-28">
          <mxGeometry relative="1" as="geometry" />
        </mxCell>
        <mxCell id="r59xEY66x3O-hmm3xWtb-30" value="Mensagem de&lt;br&gt;Confirmação" style="edgeLabel;html=1;align=center;verticalAlign=middle;resizable=0;points=[];" vertex="1" connectable="0" parent="r59xEY66x3O-hmm3xWtb-29">
          <mxGeometry x="-0.4842" y="-4" relative="1" as="geometry">
            <mxPoint y="-4" as="offset" />
          </mxGeometry>
        </mxCell>
        <mxCell id="r59xEY66x3O-hmm3xWtb-24" value="Remover Task" style="shape=ellipse;html=1;dashed=0;whiteSpace=wrap;perimeter=ellipsePerimeter;" vertex="1" parent="1">
          <mxGeometry x="440" y="290" width="100" height="50" as="geometry" />
        </mxCell>
        <mxCell id="r59xEY66x3O-hmm3xWtb-28" value="Usuário" style="whiteSpace=wrap;html=1;dashed=0;" vertex="1" parent="1">
          <mxGeometry x="650" y="90" width="120" height="60" as="geometry" />
        </mxCell>
      </root>
    </mxGraphModel>
  </diagram>
</mxfile>
